<svg xmlns="http://www.w3.org/2000/svg" width="671" height="120" viewBox="0 0 671 120"><defs><clipPath id="7fw1a"><path fill="#fff" d="M305.5 67.725l9.961 18.515h317.642l37.627-53.1-11.068-18.165-315.656-.131-9.73 13.056L305.5 67.725z"/></clipPath><mask id="7fw1c" width="2.01" height="2.06" x="-1.01" y="-1.03"><path fill="#fff" d="M18.8 11.8h352.4v77.4H18.8z"/><path d="M20.998 67.725l9.469 18.515h301.965l35.769-53.1-10.522-18.165-300.076-.131-9.25 13.056-27.355 39.825z"/></mask><filter id="7fw1b" width="423.9" height="156.8" x="-16" y="-23" filterUnits="userSpaceOnUse"><feOffset dx="1.9" dy="9.8" in="SourceGraphic" result="FeOffset1030Out"/><feGaussianBlur in="FeOffset1030Out" result="FeGaussianBlur1031Out" stdDeviation="9.92 9.92"/></filter></defs><g><g><path fill="none" stroke="#3ee51b" stroke-miterlimit="50" stroke-width="4" d="M305.5 67.725l9.961 18.515h317.642l37.627-53.1-11.068-18.165-315.656-.131-9.73 13.056L305.5 67.725z" clip-path="url(&quot;#7fw1a&quot;)"/></g><g><g filter="url(#7fw1b)"><path fill="none" stroke="#f5480c" stroke-opacity=".4" stroke-width="4.4" d="M20.998 67.725l9.469 18.515h301.965l35.769-53.1-10.522-18.165-300.076-.131-9.25 13.056-27.355 39.825z" mask="url(&quot;#7fw1c&quot;)"/><path fill="#f5480c" fill-opacity=".4" d="M20.998 67.725l9.469 18.515h301.965l35.769-53.1-10.522-18.165-300.076-.131-9.25 13.056-27.355 39.825z"/></g><path fill="#eb0c0c" d="M20.998 67.725l9.469 18.515h301.965l35.769-53.1-10.522-18.165-300.076-.131-9.25 13.056-27.355 39.825z"/></g></g></svg>