<svg xmlns="http://www.w3.org/2000/svg" width="393" height="120" viewBox="0 0 393 120"><defs><mask id="ja0tb" width="2.01" height="2.06" x="-1.01" y="-1.03"><path fill="#fff" d="M18.8 11.8h352.4v77.4H18.8z"/><path d="M20.998 67.725l9.469 18.515h301.965l35.769-53.1-10.522-18.165-300.076-.131-9.25 13.056-27.355 39.825z"/></mask><filter id="ja0ta" width="423.9" height="156.8" x="-16" y="-23" filterUnits="userSpaceOnUse"><feOffset dx="1.9" dy="9.8" in="SourceGraphic" result="FeOffset1023Out"/><feGaussianBlur in="FeOffset1023Out" result="FeGaussianBlur1024Out" stdDeviation="9.92 9.92"/></filter></defs><g><g><g filter="url(#ja0ta)"><path fill="none" stroke="#f5480c" stroke-opacity=".4" stroke-width="4.4" d="M20.998 67.725l9.469 18.515h301.965l35.769-53.1-10.522-18.165-300.076-.131-9.25 13.056-27.355 39.825z" mask="url(&quot;#ja0tb&quot;)"/><path fill="#f5480c" fill-opacity=".4" d="M20.998 67.725l9.469 18.515h301.965l35.769-53.1-10.522-18.165-300.076-.131-9.25 13.056-27.355 39.825z"/></g><path fill="#eb0c0c" d="M20.998 67.725l9.469 18.515h301.965l35.769-53.1-10.522-18.165-300.076-.131-9.25 13.056-27.355 39.825z"/></g></g></svg>